HIERARCHY
ROOT Pelvis
{
	OFFSET 0.000000 0.000000 0.000000
	CHANNELS 6 Xposition Yposition Zposition Xrotation Yrotation Zrotation
	JOINT LeftUpLeg_virtual
	{
		OFFSET 0.000000 0.000000 0.000000
		CHANNELS 3 Xrotation Yrotation Zrotation
		JOINT LeftUpLeg
		{
			OFFSET 18.735201 -5.666702 -4.541200
			CHANNELS 3 Xrotation Yrotation Zrotation
			JOINT LeftLeg
			{
				OFFSET -0.021200 -31.938179 0.493100
				CHANNELS 3 Xrotation Yrotation Zrotation
				JOINT LeftFoot
				{
					OFFSET 0.021200 -31.938179 -4.336299
					CHANNELS 3 Xrotation Yrotation Zrotation
					JOINT LeftToeBase
					{
						OFFSET 0.943001 -26.722000 15.023500
						CHANNELS 3 Xrotation Yrotation Zrotation
						End Site
						{
							OFFSET 0 0 0
						}
					}
				}
			}
		}
	}
	JOINT RightUpLeg_virtual
	{
		OFFSET 0.000000 0.000000 0.000000
		CHANNELS 3 Xrotation Yrotation Zrotation
		JOINT RightUpLeg
		{
			OFFSET -18.735201 -5.666702 -4.541200
			CHANNELS 3 Xrotation Yrotation Zrotation
			JOINT RightLeg
			{
				OFFSET 0.018946 -31.938133 0.493100
				CHANNELS 3 Xrotation Yrotation Zrotation
				JOINT RightFoot
				{
					OFFSET -0.018946 -31.938126 -4.336299
					CHANNELS 3 Xrotation Yrotation Zrotation
					JOINT RightToeBase
					{
						OFFSET -0.943001 -26.722004 15.023500
						CHANNELS 3 Xrotation Yrotation Zrotation
						End Site
						{
							OFFSET 0 0 0
						}
					}
				}
			}
		}
	}
	JOINT Hips_virtual
	{
		OFFSET 0.000000 0.000000 0.000000
		CHANNELS 3 Xrotation Yrotation Zrotation
		JOINT Hips
		{
			OFFSET -0.000000 -0.000000 -0.000000
			CHANNELS 3 Xrotation Yrotation Zrotation
			JOINT Spine
			{
				OFFSET 0.000000 10.199997 -0.299500
				CHANNELS 3 Xrotation Yrotation Zrotation
				JOINT Spine1
				{
					OFFSET 0.000000 11.900002 -1.516600
					CHANNELS 3 Xrotation Yrotation Zrotation
					JOINT Spine2
					{
						OFFSET 0.000000 13.600006 -2.842500
						CHANNELS 3 Xrotation Yrotation Zrotation
						JOINT Neck_virtual
						{
							OFFSET 0.000000 0.000000 0.000000
							CHANNELS 3 Xrotation Yrotation Zrotation
							JOINT Neck
							{
								OFFSET 0.000000 9.624100 -2.890100
								CHANNELS 3 Xrotation Yrotation Zrotation
								JOINT Head
								{
									OFFSET 0.000000 14.068802 -1.351900
									CHANNELS 3 Xrotation Yrotation Zrotation
									End Site
									{
										OFFSET 0 0 0
									}
								}
							}
						}
						JOINT LeftShoulder_virtual
						{
							OFFSET 0.000000 0.000000 0.000000
							CHANNELS 3 Xrotation Yrotation Zrotation
							JOINT LeftShoulder
							{
								OFFSET 15.263000 10.923401 -0.547700
								CHANNELS 3 Xrotation Yrotation Zrotation
								JOINT LeftArm
								{
									OFFSET 25.438599 -2.830597 -13.032500
									CHANNELS 3 Xrotation Yrotation Zrotation
									JOINT LeftForeArm
									{
										OFFSET 29.960503 0.000000 0.000000
										CHANNELS 3 Xrotation Yrotation Zrotation
										JOINT LeftHand
										{
											OFFSET 27.849251 0.000000 0.000000
											CHANNELS 3 Xrotation Yrotation Zrotation
											End Site
											{
												OFFSET 0 0 0
											}
										}
									}
								}
							}
						}
						JOINT RightShoulder_virtual
						{
							OFFSET 0.000000 0.000000 0.000000
							CHANNELS 3 Xrotation Yrotation Zrotation
							JOINT RightShoulder
							{
								OFFSET -15.263000 10.923401 -0.547700
								CHANNELS 3 Xrotation Yrotation Zrotation
								JOINT RightArm
								{
									OFFSET -25.438599 -2.830597 -13.032500
									CHANNELS 3 Xrotation Yrotation Zrotation
									JOINT RightForeArm
									{
										OFFSET -29.960503 0.000000 0.000000
										CHANNELS 3 Xrotation Yrotation Zrotation
										JOINT RightHand
										{
											OFFSET -27.849251 0.000000 0.000000
											CHANNELS 3 Xrotation Yrotation Zrotation
											End Site
											{
												OFFSET 0 0 0
											}
										}
									}
								}
							}
						}
					}
				}
			}
		}
	}
}
MOTION
Frames: 4
Frame Time: 0.03333333
-1.338230 134.379868 5.812872 0.000000 0.000000 0.000000 -21.297428 -29.648345 3.372495 -69.727168 -5.009785 23.437466 67.344989 -2.132051 -2.013082 11.255224 -2.272960 -10.354327 0.000000 0.000000 0.000000 -30.292835 -9.283647 1.978184 -70.549154 -1.841476 -14.917722 110.946028 -4.644942 -1.974191 38.709687 -2.669762 3.350744 0.000000 0.000000 0.000000 4.524490 -14.222453 1.683694 16.568480 -4.606514 3.896199 16.959892 -4.189386 -5.000162 9.642024 -1.196907 -4.032310 0.000000 0.000000 0.000000 -4.654980 0.595744 0.490648 -4.060652 1.179762 1.170569 0.000000 0.000000 0.000000 2.483484 -2.280982 2.219323 1.523118 -15.476632 14.113031 -60.444148 -10.147592 -4.344023 -16.140488 -41.027994 8.601550 0.000000 0.000000 0.000000 1.023626 -1.175251 -4.176744 -0.784065 1.337131 -15.529239 -66.514445 -15.773970 16.192483 -37.977884 50.606753 19.475074 0.000000 0.000000 0.000000 
-2.306957 133.525665 10.895948 0.000000 0.000000 0.000000 -21.687789 -31.117229 3.122402 -69.741484 -5.470255 23.169859 67.103030 -2.515510 -1.637964 11.278315 -2.887555 -10.265475 0.000000 0.000000 0.000000 -30.837122 -4.330970 4.424854 -70.959054 -1.368562 -13.442078 115.189774 -4.908496 -1.593103 42.802583 -3.052915 3.078283 0.000000 0.000000 0.000000 3.230528 -13.955336 1.257138 17.715313 -2.270376 6.600624 17.438829 -4.850061 -6.184924 10.139624 -1.212632 -4.455093 0.000000 0.000000 0.000000 -5.069927 0.227917 -0.002793 -4.405560 1.397237 1.257719 0.000000 0.000000 0.000000 2.620317 -2.593701 1.890321 2.123834 -14.554264 15.341213 -64.905444 -11.160425 -7.827501 -18.487186 -43.449886 6.010697 0.000000 0.000000 0.000000 1.048349 -1.303846 -4.084206 -0.548273 0.893120 -15.381815 -67.283490 -17.208892 12.472881 -43.683236 52.977129 25.605910 0.000000 0.000000 0.000000 
-1.547528 132.343338 17.089333 0.000000 0.000000 0.000000 -21.678394 -32.335348 2.649239 -69.326133 -5.652914 22.678993 67.555011 -1.705797 -1.611116 12.120956 -2.076961 -9.636757 0.000000 0.000000 0.000000 -29.019216 -1.636111 4.256170 -68.867718 -0.766528 -13.589781 115.694266 -4.451257 -1.722059 44.381073 -2.434918 3.225308 0.000000 0.000000 0.000000 4.737064 -13.531895 2.268447 11.622519 -5.394544 3.947655 17.525857 -5.659949 -6.207154 9.513765 -1.507449 -4.041669 0.000000 0.000000 0.000000 -4.508755 -0.015547 0.284205 -4.779453 1.425810 1.249239 0.000000 0.000000 0.000000 2.477411 -2.703815 1.471968 1.240999 -17.028575 13.548379 -68.541713 -11.139653 -11.249281 -22.049939 -43.449883 2.446899 0.000000 0.000000 0.000000 1.443710 -0.945158 -3.668010 -0.398621 1.715868 -15.406947 -65.740666 -15.562714 15.617181 -51.185943 56.487908 33.149903 0.000000 0.000000 0.000000 
-2.500768 133.106735 20.958214 0.000000 0.000000 0.000000 -20.643255 -36.575192 1.699316 -68.045603 -6.113468 22.025746 67.515512 -0.533702 -1.038795 12.521713 -1.137271 -7.828316 0.000000 0.000000 0.000000 -28.952434 -6.635809 6.039994 -69.231651 -2.980967 -11.983436 112.611153 -3.630954 -1.057956 42.385941 -1.985415 5.236614 0.000000 0.000000 0.000000 2.479056 -12.088024 1.483636 11.406912 -7.959431 4.547297 16.031772 -5.299251 -6.102582 9.938036 -1.126990 -4.584488 0.000000 0.000000 0.000000 -3.582450 0.079753 0.367975 -4.074039 1.404932 1.435739 0.000000 0.000000 0.000000 3.044733 -2.598396 0.614453 0.729683 -15.288692 12.287737 -70.215239 -8.296049 -10.866170 -22.448009 -42.484808 1.333348 0.000000 0.000000 0.000000 1.799051 -0.059766 -3.216668 -0.101675 2.873616 -13.153234 -64.393200 -14.153848 15.822953 -57.252821 60.162669 41.071987 0.000000 0.000000 0.000000 
